<svg width="772" height="250" viewBox="0 0 772 250" xmlns="http://www.w3.org/2000/svg"><title>banner</title><g stroke-width="1.51" fill="none" fill-rule="evenodd"><path stroke="#045B90" fill="#045B90" d="M774.76 222.548l-27.2 67.534 128.502-20.635z"/><path stroke="#7D91B2" fill="#7D91B2" d="M739.117-18.512L809.466 7.75l30.015-83.48z"/><path stroke="#5884AE" fill="#5884AE" d="M736.303 67.781l37.52 66.597 20.635-79.728z"/><path stroke="#738DB1" fill="#738DB1" d="M739.117-18.512l55.341 73.162L809.466 7.75z"/><path stroke="#04629A" fill="#04629A" d="M728.8 276.95l18.76 13.132 27.2-67.534z"/><path stroke="#6E8DB5" fill="#6E8DB5" d="M739.117-18.512l-2.814 86.293 58.155-13.131z"/><path stroke="#4081B1" fill="#4081B1" d="M699.722 105.3l-30.015 72.225 104.116-43.147z"/><path stroke="#5285B2" fill="#5285B2" d="M736.303 67.781l-36.58 37.52 74.1 29.077z"/><path stroke="#0C6BA4" fill="#0C6BA4" d="M661.265 203.788L728.8 276.95l45.96-54.402z"/><path stroke="#1D75AB" fill="#1D75AB" d="M669.707 177.525l-8.442 26.263 113.495 18.76z"/><path stroke="#2677A9" fill="#2677A9" d="M773.823 134.378l-104.116 43.147 105.053 45.023z"/><path stroke="#7294BF" fill="#7294BF" d="M615.304 39.642l121 28.14 2.813-86.294z"/><path stroke="#849FCA" fill="#849FCA" d="M610.615-28.83l4.69 68.472L724.11-44.776z"/><path stroke="#638FBD" fill="#638FBD" d="M615.304 39.642l84.418 65.659 36.581-37.52z"/><path stroke="#809AC2" fill="#809AC2" d="M724.11-44.776L615.304 39.642l123.813-58.154z"/><path stroke="#056CA9" fill="#056CA9" d="M661.265 203.788L608.74 272.26l120.06 4.69z"/><path stroke="#4787BA" fill="#4787BA" d="M621.87 104.363l47.837 73.162 30.015-72.224z"/><path stroke="#6090C1" fill="#6090C1" d="M615.304 39.642l6.566 64.72 77.852.939z"/><path stroke="#3A87BC" fill="#3A87BC" d="M621.87 104.363l-60.03 86.293 107.867-13.131z"/><path stroke="#227EB7" fill="#227EB7" d="M561.84 190.656l99.425 13.132 8.442-26.263z"/><path stroke="#1A78B5" fill="#1A78B5" d="M561.84 190.656l46.899 81.604 52.526-68.472z"/><path stroke="#1A78B4" fill="#1A78B4" d="M561.84 190.656l-6.566 69.41 53.465 12.194z"/><path stroke="#88A7CF" fill="#88A7CF" d="M610.615-28.83L533.7-40.086l81.604 79.728z"/><path stroke="#83A7CF" fill="#83A7CF" d="M533.7-40.086l-15.945 83.48 97.55-3.752z"/><path stroke="#4990C2" fill="#4990C2" d="M534.638 124.998l27.202 65.658 60.03-86.293z"/><path stroke="#6999C7" fill="#6999C7" d="M615.304 39.642L552.46 69.657l69.41 34.706z"/><path stroke="#5E98C6" fill="#5E98C6" d="M552.46 69.657l-17.822 55.341 87.232-20.635z"/><path stroke="#75A0CB" fill="#75A0CB" d="M517.755 43.394l34.705 26.263 62.844-30.015z"/><path stroke="#2580B8" fill="#2580B8" d="M524.32 226.3l30.954 33.767 6.566-69.41z"/><path stroke="#639DC9" fill="#639DC9" d="M505.561 98.735l29.077 26.263 17.822-55.34z"/><path stroke="#348CBF" fill="#348CBF" d="M534.638 124.998L524.321 226.3l37.519-35.644z"/><path stroke="#207CB6" fill="#207CB6" d="M524.32 226.3l-10.317 35.643 41.27-1.876z"/><path stroke="#6FA3CC" fill="#6FA3CC" d="M517.755 43.394l-12.194 55.34 46.899-29.077z"/><path stroke="#4293C2" fill="#4293C2" d="M449.282 107.177l-17.821 122.875 92.86-3.752z"/><path stroke="#8FB2D4" fill="#8FB2D4" d="M459.6-28.83l58.155 72.224 15.945-83.48z"/><path stroke="#4B96C4" fill="#4B96C4" d="M449.282 107.177L524.321 226.3l10.317-101.302z"/><path stroke="#619FC9" fill="#619FC9" d="M505.561 98.735l-56.279 8.442 85.356 17.821z"/><path stroke="#8EB1D4" fill="#8EB1D4" d="M459.6-28.83l-11.256 58.154 69.41 14.07z"/><path stroke="#2B7CB1" fill="#2B7CB1" d="M514.003 261.943l-82.542-31.891 85.356 103.177z"/><path stroke="#2E83BA" fill="#2E83BA" d="M431.46 230.052l82.543 31.89L524.32 226.3z"/><path stroke="#3579A8" fill="#3579A8" d="M431.46 230.052l-20.635 136.944 105.992-33.767z"/><path stroke="#7AA9CF" fill="#7AA9CF" d="M448.344 29.324l57.217 69.41 12.194-55.34z"/><path stroke="#549AC7" fill="#549AC7" d="M391.128 182.215l40.333 47.837 17.821-122.875z"/><path stroke="#76A7CE" fill="#76A7CE" d="M448.344 29.324l.938 77.853 56.28-8.442z"/><path stroke="#457FAD" fill="#457FAD" d="M339.54 321.973l71.285 45.023 20.636-136.944z"/><path stroke="#7DABD0" fill="#7DABD0" d="M448.344 29.324l-75.038 85.356 75.976-7.503z"/><path stroke="#6BA5CC" fill="#6BA5CC" d="M373.306 114.68l17.822 67.535 58.154-75.038z"/><path stroke="#9CB8D8" fill="#9CB8D8" d="M411.763-23.202l36.581 52.526L459.6-28.83z"/><path stroke="#9EB9D9" fill="#9EB9D9" d="M411.763-23.202L377.058 2.123l71.286 27.201z"/><path stroke="#8FB3D5" fill="#8FB3D5" d="M377.058 2.123l-3.752 112.557 75.038-85.356z"/><path stroke="#518ABB" fill="#518ABB" d="M316.09 242.245l23.45 79.728 91.92-91.921z"/><path stroke="#5494C4" fill="#5494C4" d="M391.128 182.215l-75.038 60.03 115.37-12.193z"/><path stroke="#98B7D7" fill="#98B7D7" d="M317.966 34.014l55.34 80.666 3.752-112.557z"/><path stroke="#5E99C7" fill="#5E99C7" d="M324.531 201.912l-8.441 40.333 75.038-60.03z"/><path stroke="#AFC5DF" fill="#AFC5DF" d="M336.725-99.178L377.058 2.123l34.705-25.325z"/><path stroke="#74A7CE" fill="#74A7CE" d="M296.392 135.316l28.14 66.596 48.774-87.232z"/><path stroke="#B5C7E0" fill="#B5C7E0" d="M336.725-99.178l-27.201 80.666 67.534 20.635z"/><path stroke="#66A2CB" fill="#66A2CB" d="M373.306 114.68l-48.775 87.232 66.597-19.697z"/><path stroke="#8CB2D4" fill="#8CB2D4" d="M317.966 34.014l-21.574 101.302 76.914-20.636z"/><path stroke="#ABC0DD" fill="#ABC0DD" d="M309.524-18.512l8.442 52.526 59.092-31.89z"/><path stroke="#9EBAD9" fill="#9EBAD9" d="M270.129 27.448l26.263 107.868 21.574-101.302z"/><path stroke="#6FA4CD" fill="#6FA4CD" d="M296.392 135.316l-4.69 57.216 32.83 9.38z"/><path stroke="#5B8AB8" fill="#5B8AB8" d="M316.09 242.245l-35.643 46.9 59.092 32.828z"/><path stroke="#AFC1DD" fill="#AFC1DD" d="M309.524-18.512l-39.395 45.96 47.837 6.566z"/><path stroke="#659BC8" fill="#659BC8" d="M291.702 192.532l24.388 49.713 8.441-40.333z"/><path stroke="#6394C5" fill="#6394C5" d="M291.702 192.532l-11.255 96.612 35.643-46.899z"/><path stroke="#6D9BC9" fill="#6D9BC9" d="M227.92 189.719l52.527 99.425 11.255-96.612z"/><path stroke="#A5BCDB" fill="#A5BCDB" d="M270.129 27.448L180.083 49.96l116.31 85.356z"/><path stroke="#BCC7E1" fill="#BCC7E1" d="M224.168-29.768l45.96 57.216 39.396-45.96z"/><path stroke="#6D95C3" fill="#6D95C3" d="M227.92 189.719L217.602 291.02l62.845-1.876z"/><path stroke="#99B7D8" fill="#99B7D8" d="M180.083 49.96l11.256 104.115 105.053-18.76z"/><path stroke="#78A8CF" fill="#78A8CF" d="M227.92 189.719l63.782 2.813 4.69-57.216z"/><path stroke="#84ADD2" fill="#84ADD2" d="M191.339 154.075l36.58 35.644 68.473-54.403z"/><path stroke="#BCC7E1" fill="#BCC7E1" d="M224.168-29.768L180.083 49.96l90.046-22.512z"/><path stroke="#C0C9E1" fill="#C0C9E1" d="M167.89 49.022l12.193.938 44.085-79.728z"/><path stroke="#CACEE4" fill="#CACEE4" d="M126.618-19.45l41.271 68.472 56.279-78.79z"/><path stroke="#7699C7" fill="#7699C7" d="M151.944 271.323l65.658 19.697 10.318-101.301z"/><path stroke="#80A6CE" fill="#80A6CE" d="M191.339 154.075l-39.395 117.248 75.976-81.604z"/><path stroke="#ABBFDC" fill="#ABBFDC" d="M180.083 49.96l-12.194-.938 23.45 105.053z"/><path stroke="#89ACD1" fill="#89ACD1" d="M107.859 161.58l44.085 109.743 39.395-117.248z"/><path stroke="#A2BCDA" fill="#A2BCDA" d="M167.89 49.022L116.3 153.137l75.039.938z"/><path stroke="#8AA8D0" fill="#8AA8D0" d="M107.859 161.58l-27.202 63.782 71.287 45.96z"/><path stroke="#ADC1DD" fill="#ADC1DD" d="M79.72 112.804l36.58 40.333 51.59-104.115z"/><path stroke="#97B6D7" fill="#97B6D7" d="M116.3 153.137l-8.441 8.442 83.48-7.504z"/><path stroke="#CCCFE6" fill="#CCCFE6" d="M126.618-19.45l-55.34 45.023 96.611 23.449z"/><path stroke="#BEC9E2" fill="#BEC9E2" d="M71.278 25.573l8.441 87.231 88.17-63.782z"/><path stroke="#86A2CB" fill="#86A2CB" d="M80.657 225.362L56.27 258.19l95.674 13.132z"/><path stroke="#D7D7E9" fill="#D7D7E9" d="M63.774-31.644l7.504 57.217 55.34-45.023z"/><path stroke="#A1BCDA" fill="#A1BCDA" d="M79.72 112.804l28.139 48.775 8.442-8.442z"/><path stroke="#9AB9D8" fill="#9AB9D8" d="M26.255 122.184l54.402 103.178 27.202-63.783z"/><path stroke="#A8C1DD" fill="#A8C1DD" d="M79.72 112.804l-53.465 9.38 81.604 39.395z"/><path stroke="#C5CFE5" fill="#C5CFE5" d="M71.278 25.573L15.937 38.704l63.782 74.1z"/><path stroke="#BBCBE3" fill="#BBCBE3" d="M15.937 38.704l10.318 83.48 53.464-9.38z"/><path stroke="#9FBCDA" fill="#9FBCDA" d="M26.255 122.184l-53.465 47.837 107.867 55.34z"/><path stroke="#8DA6CF" fill="#8DA6CF" d="M-.947 259.129l57.217-.938 24.387-32.83z"/><path stroke="#96B1D5" fill="#96B1D5" d="M-27.21 170.021l26.263 89.108 81.604-33.767z"/><path stroke="#D6D7E9" fill="#D6D7E9" d="M63.774-31.644L15.937 38.704l55.34-13.131z"/><path stroke="#DFDDEC" fill="#DFDDEC" d="M-11.264-42.9l27.201 81.604 47.837-70.348z"/><path stroke="#CCD5E8" fill="#CCD5E8" d="M-60.04 32.138l-.937 87.232 76.914-80.666z"/><path stroke="#DDDCEC" fill="#DDDCEC" d="M-11.264-42.9L-60.04 32.138l75.976 6.566z"/><path stroke="#BFCEE5" fill="#BFCEE5" d="M15.937 38.704l-76.914 80.666 87.232 2.814z"/><path stroke="#B0C7E0" fill="#B0C7E0" d="M-60.977 119.37l33.767 50.651 53.465-47.837z"/></g></svg>