<svg width="128" height="128" viewBox="0 0 128 128" xmlns="http://www.w3.org/2000/svg" xmlns:xlink="http://www.w3.org/1999/xlink"><title>icon</title><defs><path id="a" d="M0 0h128v128H0z"/></defs><g fill="none" fill-rule="evenodd"><g stroke-width="1.51"><path stroke="#8D74B5" fill="#8D74B5" d="M91.721 126.669l39.083 28.176 32.72-77.257z"/><path stroke="#8D8AC0" fill="#8D8AC0" d="M132.622 44.868L88.086 72.135l75.438 5.453z"/><path stroke="#8D82BC" fill="#8D82BC" d="M88.086 72.135l3.635 54.534 71.803-49.08z"/><path stroke="#949CCA" fill="#949CCA" d="M109.9-26.026L81.722 45.777l50.899-.909z"/><path stroke="#999FCB" fill="#999FCB" d="M109.9-26.026l22.722 70.894 1.817-63.623z"/><path stroke="#8E93C4" fill="#8E93C4" d="M81.723 45.777l6.363 26.358 44.536-27.267z"/><path stroke="#8C6BB1" fill="#8C6BB1" d="M91.721 126.669L77.18 198.472l53.625-43.627z"/><path stroke="#94A5CE" fill="#94A5CE" d="M33.552-7.848l11.816 44.536 36.355 9.09z"/><path stroke="#97A8CF" fill="#97A8CF" d="M33.552-7.848l48.171 53.625L109.9-26.026z"/><path stroke="#8D75B5" fill="#8D75B5" d="M32.643 132.122l44.536 66.35 14.542-71.803z"/><path stroke="#8D88BF" fill="#8D88BF" d="M88.086 72.135L57.183 83.042l34.538 43.627z"/><path stroke="#8D84BD" fill="#8D84BD" d="M57.183 83.042l-24.54 49.08 59.078-5.453z"/><path stroke="#8C93C4" fill="#8C93C4" d="M81.723 45.777l-24.54 37.265 30.903-10.907z"/><path stroke="#8E9AC8" fill="#8E9AC8" d="M45.368 36.688l11.815 46.354 24.54-37.265z"/><path stroke="#8F99C7" fill="#8F99C7" d="M45.368 36.688l-49.99 59.987 61.805-13.633z"/><path stroke="#908DC2" fill="#908DC2" d="M-4.622 96.675l37.265 35.447 24.54-49.08z"/><path stroke="#99B0D3" fill="#99B0D3" d="M33.552-7.848l-36.356.91 48.172 43.626z"/><path stroke="#93A5CE" fill="#93A5CE" d="M-26.435 19.42l21.813 77.255 49.99-59.987z"/><path stroke="#99B1D4" fill="#99B1D4" d="M-2.804-6.939L-26.435 19.42l71.803 17.27z"/><path stroke="#9288BF" fill="#9288BF" d="M-4.622 96.675l4.545 49.08 32.72-13.633z"/></g><mask id="b" fill="#fff"><use xlink:href="#a"/></mask><use fill="#D8D8D8" xlink:href="#a"/><g stroke-width="1.51" mask="url(#b)"><path stroke="#4293C2" fill="#4293C2" d="M127.282 46.177l-17.821 122.875 92.86-3.752z"/><path stroke="#4B96C4" fill="#4B96C4" d="M127.282 46.177L202.321 165.3l10.317-101.302z"/><path stroke="#619FC9" fill="#619FC9" d="M183.561 37.735l-56.279 8.442 85.356 17.821z"/><path stroke="#7AA9CF" fill="#7AA9CF" d="M126.344-31.676l57.217 69.41 12.194-55.34z"/><path stroke="#549AC7" fill="#549AC7" d="M69.128 121.215l40.333 47.837 17.821-122.875z"/><path stroke="#76A7CE" fill="#76A7CE" d="M126.344-31.676l.938 77.853 56.28-8.442z"/><path stroke="#7DABD0" fill="#7DABD0" d="M126.344-31.676L51.306 53.68l75.976-7.503z"/><path stroke="#6BA5CC" fill="#6BA5CC" d="M51.306 53.68l17.822 67.535 58.154-75.038z"/><path stroke="#8FB3D5" fill="#8FB3D5" d="M55.058-58.877L51.306 53.68l75.038-85.356z"/><path stroke="#5494C4" fill="#5494C4" d="M69.128 121.215l-75.038 60.03 115.37-12.193z"/><path stroke="#98B7D7" fill="#98B7D7" d="M-4.034-26.986l55.34 80.666 3.752-112.557z"/><path stroke="#5E99C7" fill="#5E99C7" d="M2.531 140.912l-8.441 40.333 75.038-60.03z"/><path stroke="#74A7CE" fill="#74A7CE" d="M-25.608 74.316l28.14 66.596L51.305 53.68z"/><path stroke="#66A2CB" fill="#66A2CB" d="M51.306 53.68L2.531 140.912l66.597-19.697z"/><path stroke="#8CB2D4" fill="#8CB2D4" d="M-4.034-26.986L-25.608 74.316 51.306 53.68z"/><path stroke="#6FA4CD" fill="#6FA4CD" d="M-25.608 74.316l-4.69 57.216 32.83 9.38z"/></g></g></svg>