<svg width="128" height="128" viewBox="0 0 128 128" xmlns="http://www.w3.org/2000/svg"><title>icon</title><g stroke-width="1.51" fill="none" fill-rule="evenodd"><path stroke="#4293C2" fill="#4293C2" d="M127.282 46.177l-17.821 122.875 92.86-3.752z"/><path stroke="#4B96C4" fill="#4B96C4" d="M127.282 46.177L202.321 165.3l10.317-101.302z"/><path stroke="#619FC9" fill="#619FC9" d="M183.561 37.735l-56.279 8.442 85.356 17.821z"/><path stroke="#7AA9CF" fill="#7AA9CF" d="M126.344-31.676l57.217 69.41 12.194-55.34z"/><path stroke="#549AC7" fill="#549AC7" d="M69.128 121.215l40.333 47.837 17.821-122.875z"/><path stroke="#76A7CE" fill="#76A7CE" d="M126.344-31.676l.938 77.853 56.28-8.442z"/><path stroke="#7DABD0" fill="#7DABD0" d="M126.344-31.676L51.306 53.68l75.976-7.503z"/><path stroke="#6BA5CC" fill="#6BA5CC" d="M51.306 53.68l17.822 67.535 58.154-75.038z"/><path stroke="#8FB3D5" fill="#8FB3D5" d="M55.058-58.877L51.306 53.68l75.038-85.356z"/><path stroke="#5494C4" fill="#5494C4" d="M69.128 121.215l-75.038 60.03 115.37-12.193z"/><path stroke="#98B7D7" fill="#98B7D7" d="M-4.034-26.986l55.34 80.666 3.752-112.557z"/><path stroke="#5E99C7" fill="#5E99C7" d="M2.531 140.912l-8.441 40.333 75.038-60.03z"/><path stroke="#74A7CE" fill="#74A7CE" d="M-25.608 74.316l28.14 66.596L51.305 53.68z"/><path stroke="#66A2CB" fill="#66A2CB" d="M51.306 53.68L2.531 140.912l66.597-19.697z"/><path stroke="#8CB2D4" fill="#8CB2D4" d="M-4.034-26.986L-25.608 74.316 51.306 53.68z"/><path stroke="#6FA4CD" fill="#6FA4CD" d="M-25.608 74.316l-4.69 57.216 32.83 9.38z"/></g></svg>